<svg xmlns="http://www.w3.org/2000/svg" xmlns:xlink="http://www.w3.org/1999/xlink" width="1000" zoomAndPan="magnify" viewBox="0 0 750 149.999998" height="200" preserveAspectRatio="xMidYMid meet" version="1.0"><defs><g/><clipPath id="5d1cc104a5"><rect x="0" width="662" y="0" height="150"/></clipPath><clipPath id="37d874c2ec"><rect x="0" width="233" y="0" height="28"/></clipPath><clipPath id="2e9cd20824"><path d="M 52.878906 128.839844 L 457.136719 128.839844 L 457.136719 147.042969 L 52.878906 147.042969 Z M 52.878906 128.839844 " clip-rule="nonzero"/></clipPath><clipPath id="3c535c6fce"><path d="M 0.878906 0.839844 L 405.136719 0.839844 L 405.136719 19.042969 L 0.878906 19.042969 Z M 0.878906 0.839844 " clip-rule="nonzero"/></clipPath><clipPath id="ed74f6aa9f"><rect x="0" width="406" y="0" height="20"/></clipPath></defs><g transform="matrix(1, 0, 0, 1, 45, -0.000000000000007527)"><g clip-path="url(#5d1cc104a5)"><g fill="#dbdbdb" fill-opacity="1"><g transform="translate(1.483001, 114.75868)"><g><path d="M 38.046875 2.359375 C 30.867188 2.359375 24.921875 1.375 20.203125 -0.59375 C 15.484375 -2.5625 11.796875 -5.265625 9.140625 -8.703125 C 6.484375 -12.140625 4.613281 -16.117188 3.53125 -20.640625 C 2.457031 -25.171875 1.921875 -29.988281 1.921875 -35.09375 L 1.921875 -43.953125 L 25.515625 -43.953125 L 25.515625 -35.09375 C 25.515625 -30.082031 26.273438 -26.203125 27.796875 -23.453125 C 29.328125 -20.703125 32.253906 -19.328125 36.578125 -19.328125 C 40.898438 -19.328125 43.820312 -20.703125 45.34375 -23.453125 C 46.875 -26.203125 47.640625 -30.082031 47.640625 -35.09375 L 47.640625 -105.453125 L 74.1875 -105.453125 L 74.1875 -35.09375 C 74.1875 -29.988281 73.644531 -25.171875 72.5625 -20.640625 C 71.476562 -16.117188 69.609375 -12.140625 66.953125 -8.703125 C 64.296875 -5.265625 60.632812 -2.5625 55.96875 -0.59375 C 51.300781 1.375 45.328125 2.359375 38.046875 2.359375 Z M 38.046875 2.359375 "/></g></g></g><g fill="#dbdbdb" fill-opacity="1"><g transform="translate(84.069416, 114.75868)"><g><path d="M 38.046875 2.359375 C 30.867188 2.359375 24.921875 1.375 20.203125 -0.59375 C 15.484375 -2.5625 11.796875 -5.265625 9.140625 -8.703125 C 6.484375 -12.140625 4.613281 -16.117188 3.53125 -20.640625 C 2.457031 -25.171875 1.921875 -29.988281 1.921875 -35.09375 L 1.921875 -43.953125 L 25.515625 -43.953125 L 25.515625 -35.09375 C 25.515625 -30.082031 26.273438 -26.203125 27.796875 -23.453125 C 29.328125 -20.703125 32.253906 -19.328125 36.578125 -19.328125 C 40.898438 -19.328125 43.820312 -20.703125 45.34375 -23.453125 C 46.875 -26.203125 47.640625 -30.082031 47.640625 -35.09375 L 47.640625 -105.453125 L 74.1875 -105.453125 L 74.1875 -35.09375 C 74.1875 -29.988281 73.644531 -25.171875 72.5625 -20.640625 C 71.476562 -16.117188 69.609375 -12.140625 66.953125 -8.703125 C 64.296875 -5.265625 60.632812 -2.5625 55.96875 -0.59375 C 51.300781 1.375 45.328125 2.359375 38.046875 2.359375 Z M 38.046875 2.359375 "/></g></g></g><g fill="#dbdbdb" fill-opacity="1"><g transform="translate(166.655831, 114.75868)"><g><path d="M 50.296875 2.359375 C 41.148438 2.359375 32.960938 0.910156 25.734375 -1.984375 C 18.503906 -4.890625 12.773438 -9.117188 8.546875 -14.671875 C 4.328125 -20.222656 2.21875 -26.882812 2.21875 -34.65625 L 28.765625 -34.65625 C 28.765625 -30.914062 29.742188 -27.914062 31.703125 -25.65625 C 33.671875 -23.394531 36.273438 -21.773438 39.515625 -20.796875 C 42.765625 -19.816406 46.359375 -19.328125 50.296875 -19.328125 C 55.210938 -19.328125 58.972656 -20.1875 61.578125 -21.90625 C 64.179688 -23.625 65.484375 -25.8125 65.484375 -28.46875 C 65.484375 -31.3125 64.328125 -33.519531 62.015625 -35.09375 C 59.703125 -36.675781 56.578125 -38.054688 52.640625 -39.234375 C 48.710938 -40.410156 44.242188 -41.738281 39.234375 -43.21875 C 33.234375 -44.988281 27.625 -47.148438 22.40625 -49.703125 C 17.195312 -52.253906 13.019531 -55.617188 9.875 -59.796875 C 6.726562 -63.984375 5.15625 -69.320312 5.15625 -75.8125 C 5.15625 -83.476562 6.972656 -89.671875 10.609375 -94.390625 C 14.253906 -99.109375 19.148438 -102.523438 25.296875 -104.640625 C 31.441406 -106.753906 38.300781 -107.8125 45.875 -107.8125 C 54.125 -107.8125 61.566406 -106.429688 68.203125 -103.671875 C 74.847656 -100.921875 80.1875 -96.988281 84.21875 -91.875 C 88.25 -86.769531 90.363281 -80.628906 90.5625 -73.453125 L 64.015625 -73.453125 C 63.421875 -77.484375 61.523438 -80.601562 58.328125 -82.8125 C 55.128906 -85.019531 50.976562 -86.125 45.875 -86.125 C 41.9375 -86.125 38.585938 -85.460938 35.828125 -84.140625 C 33.078125 -82.816406 31.703125 -80.675781 31.703125 -77.71875 C 31.703125 -74.476562 33.375 -72.09375 36.71875 -70.5625 C 40.0625 -69.039062 45.03125 -67.347656 51.625 -65.484375 C 56.632812 -64.109375 61.523438 -62.582031 66.296875 -60.90625 C 71.066406 -59.238281 75.390625 -57.148438 79.265625 -54.640625 C 83.148438 -52.128906 86.25 -48.957031 88.5625 -45.125 C 90.875 -41.289062 92.03125 -36.570312 92.03125 -30.96875 C 92.03125 -20.84375 88.367188 -12.753906 81.046875 -6.703125 C 73.722656 -0.660156 63.472656 2.359375 50.296875 2.359375 Z M 50.296875 2.359375 "/></g></g></g><g fill="#dbdbdb" fill-opacity="1"><g transform="translate(264.284728, 114.75868)"><g><path d="M 42.625 2.359375 C 34.269531 2.359375 27.09375 0.664062 21.09375 -2.71875 C 15.09375 -6.113281 10.46875 -10.832031 7.21875 -16.875 C 3.976562 -22.925781 2.359375 -29.882812 2.359375 -37.75 C 2.359375 -45.425781 3.929688 -52.285156 7.078125 -58.328125 C 10.222656 -64.378906 14.71875 -69.148438 20.5625 -72.640625 C 26.414062 -76.128906 33.328125 -77.875 41.296875 -77.875 C 49.953125 -77.875 57.15625 -75.929688 62.90625 -72.046875 C 68.65625 -68.160156 72.976562 -62.726562 75.875 -55.75 C 78.78125 -48.769531 80.234375 -40.707031 80.234375 -31.5625 L 25.953125 -31.5625 C 25.953125 -26.25 27.597656 -22.21875 30.890625 -19.46875 C 34.191406 -16.71875 37.957031 -15.34375 42.1875 -15.34375 C 46.21875 -15.34375 49.285156 -16.128906 51.390625 -17.703125 C 53.503906 -19.273438 54.910156 -20.992188 55.609375 -22.859375 L 79.046875 -22.859375 C 76.984375 -15.285156 72.953125 -9.1875 66.953125 -4.5625 C 60.960938 0.0507812 52.851562 2.359375 42.625 2.359375 Z M 25.953125 -45.875 L 56.640625 -45.875 C 56.640625 -51.082031 55.210938 -55.015625 52.359375 -57.671875 C 49.503906 -60.328125 45.816406 -61.65625 41.296875 -61.65625 C 36.773438 -61.65625 33.085938 -60.328125 30.234375 -57.671875 C 27.378906 -55.015625 25.953125 -51.082031 25.953125 -45.875 Z M 25.953125 -45.875 "/></g></g></g><g fill="#dbdbdb" fill-opacity="1"><g transform="translate(349.083288, 114.75868)"><g><path d="M 41.296875 2.359375 C 33.328125 2.359375 26.441406 0.664062 20.640625 -2.71875 C 14.847656 -6.113281 10.351562 -10.832031 7.15625 -16.875 C 3.957031 -22.925781 2.359375 -29.882812 2.359375 -37.75 C 2.359375 -45.625 3.929688 -52.554688 7.078125 -58.546875 C 10.222656 -64.546875 14.671875 -69.265625 20.421875 -72.703125 C 26.171875 -76.148438 32.929688 -77.875 40.703125 -77.875 C 48.078125 -77.875 54.394531 -76.546875 59.65625 -73.890625 C 64.914062 -71.234375 69.09375 -67.617188 72.1875 -63.046875 C 75.289062 -58.472656 77.132812 -53.238281 77.71875 -47.34375 L 54.5625 -47.34375 C 54.375 -49.40625 53.8125 -51.421875 52.875 -53.390625 C 51.9375 -55.359375 50.535156 -56.976562 48.671875 -58.25 C 46.804688 -59.53125 44.296875 -60.171875 41.140625 -60.171875 C 36.328125 -60.171875 32.59375 -58.203125 29.9375 -54.265625 C 27.28125 -50.335938 25.953125 -44.832031 25.953125 -37.75 C 25.953125 -30.675781 27.253906 -25.171875 29.859375 -21.234375 C 32.472656 -17.304688 36.234375 -15.34375 41.140625 -15.34375 C 45.867188 -15.34375 49.191406 -16.691406 51.109375 -19.390625 C 53.023438 -22.097656 54.175781 -25.125 54.5625 -28.46875 L 77.71875 -28.46875 C 77.332031 -22.5625 75.613281 -17.273438 72.5625 -12.609375 C 69.507812 -7.941406 65.351562 -4.28125 60.09375 -1.625 C 54.832031 1.03125 48.566406 2.359375 41.296875 2.359375 Z M 41.296875 2.359375 "/></g></g></g><g fill="#dbdbdb" fill-opacity="1"><g transform="translate(430.932331, 114.75868)"><g><path d="M 29.640625 2.359375 C 22.367188 2.359375 16.46875 0.0507812 11.9375 -4.5625 C 7.414062 -9.1875 5.15625 -15.828125 5.15625 -24.484375 L 5.15625 -75.515625 L 28.765625 -75.515625 L 28.765625 -32 C 28.765625 -26.300781 29.742188 -22.34375 31.703125 -20.125 C 33.671875 -17.914062 36.625 -16.8125 40.5625 -16.8125 C 45.082031 -16.8125 48.570312 -18.015625 51.03125 -20.421875 C 53.488281 -22.835938 54.71875 -26.648438 54.71875 -31.859375 L 54.71875 -75.515625 L 78.3125 -75.515625 L 78.3125 0 L 54.71875 0 L 54.71875 -10.90625 L 54.421875 -10.90625 C 52.453125 -7.46875 49.5 -4.394531 45.5625 -1.6875 C 41.632812 1.007812 36.328125 2.359375 29.640625 2.359375 Z M 29.640625 2.359375 "/></g></g></g><g fill="#dbdbdb" fill-opacity="1"><g transform="translate(517.205612, 114.75868)"><g><path d="M 5.75 0 L 5.75 -75.515625 L 29.34375 -75.515625 L 29.34375 -63.125 L 29.640625 -63.125 C 31.515625 -67.351562 34.023438 -70.695312 37.171875 -73.15625 C 40.316406 -75.613281 43.953125 -76.84375 48.078125 -76.84375 C 49.160156 -76.84375 50.191406 -76.816406 51.171875 -76.765625 C 52.160156 -76.710938 53.289062 -76.539062 54.5625 -76.25 L 54.5625 -55.609375 L 54.28125 -55.609375 C 50.25 -56.390625 46.3125 -56.140625 42.46875 -54.859375 C 38.632812 -53.585938 35.488281 -51.328125 33.03125 -48.078125 C 30.570312 -44.835938 29.34375 -40.507812 29.34375 -35.09375 L 29.34375 0 Z M 5.75 0 "/></g></g></g><g fill="#dbdbdb" fill-opacity="1"><g transform="translate(575.901044, 114.75868)"><g><path d="M 42.625 2.359375 C 34.269531 2.359375 27.09375 0.664062 21.09375 -2.71875 C 15.09375 -6.113281 10.46875 -10.832031 7.21875 -16.875 C 3.976562 -22.925781 2.359375 -29.882812 2.359375 -37.75 C 2.359375 -45.425781 3.929688 -52.285156 7.078125 -58.328125 C 10.222656 -64.378906 14.71875 -69.148438 20.5625 -72.640625 C 26.414062 -76.128906 33.328125 -77.875 41.296875 -77.875 C 49.953125 -77.875 57.15625 -75.929688 62.90625 -72.046875 C 68.65625 -68.160156 72.976562 -62.726562 75.875 -55.75 C 78.78125 -48.769531 80.234375 -40.707031 80.234375 -31.5625 L 25.953125 -31.5625 C 25.953125 -26.25 27.597656 -22.21875 30.890625 -19.46875 C 34.191406 -16.71875 37.957031 -15.34375 42.1875 -15.34375 C 46.21875 -15.34375 49.285156 -16.128906 51.390625 -17.703125 C 53.503906 -19.273438 54.910156 -20.992188 55.609375 -22.859375 L 79.046875 -22.859375 C 76.984375 -15.285156 72.953125 -9.1875 66.953125 -4.5625 C 60.960938 0.0507812 52.851562 2.359375 42.625 2.359375 Z M 25.953125 -45.875 L 56.640625 -45.875 C 56.640625 -51.082031 55.210938 -55.015625 52.359375 -57.671875 C 49.503906 -60.328125 45.816406 -61.65625 41.296875 -61.65625 C 36.773438 -61.65625 33.085938 -60.328125 30.234375 -57.671875 C 27.378906 -55.015625 25.953125 -51.082031 25.953125 -45.875 Z M 25.953125 -45.875 "/></g></g></g></g></g><g transform="matrix(1, 0, 0, 1, 468, 122)"><g clip-path="url(#37d874c2ec)"><g fill="#dbdbdb" fill-opacity="1"><g transform="translate(2.173432, 22.867688)"><g><path d="M 4.59375 0 L 0.484375 0 L 3.265625 -15.75 L 7.375 -15.75 Z M 4.59375 0 "/></g></g></g><g fill="#dbdbdb" fill-opacity="1"><g transform="translate(8.442637, 22.867688)"><g><path d="M 18.328125 -15.75 L 15.546875 0 L 10.1875 0 L 6.421875 -10.4375 L 4.59375 0 L 0.484375 0 L 3.265625 -15.75 L 8.375 -15.75 L 12.328125 -4.859375 L 14.21875 -15.75 Z M 18.328125 -15.75 "/></g></g></g><g fill="#dbdbdb" fill-opacity="1"><g transform="translate(25.655714, 22.867688)"><g><path d="M 15.78125 -12.5625 L 10.6875 -12.5625 L 8.46875 0 L 4.359375 0 L 6.578125 -12.5625 L 1.4375 -12.5625 L 2.03125 -15.75 L 16.375 -15.75 Z M 15.78125 -12.5625 "/></g></g></g><g fill="#dbdbdb" fill-opacity="1"><g transform="translate(39.357633, 22.867688)"><g><path d="M 6.796875 -12.5625 L 6.28125 -9.5 L 13.5625 -9.5 L 12.984375 -6.296875 L 5.703125 -6.296875 L 5.15625 -3.203125 L 13.125 -3.203125 L 12.5625 0 L 0.484375 0 L 3.265625 -15.75 L 15.109375 -15.75 L 14.546875 -12.5625 Z M 6.796875 -12.5625 "/></g></g></g><g fill="#dbdbdb" fill-opacity="1"><g transform="translate(52.968362, 22.867688)"><g><path d="M 15.59375 -12.1875 C 15.59375 -9.75 14.242188 -8.179688 11.546875 -7.484375 C 12.265625 -7.179688 12.753906 -6.675781 13.015625 -5.96875 C 13.285156 -5.257812 13.421875 -4.28125 13.421875 -3.03125 C 13.421875 -2.375 13.46875 -1.800781 13.5625 -1.3125 C 13.65625 -0.820312 13.785156 -0.382812 13.953125 0 L 9.46875 0 C 9.40625 -0.425781 9.363281 -0.890625 9.34375 -1.390625 C 9.320312 -1.890625 9.3125 -2.59375 9.3125 -3.5 C 9.3125 -4.257812 9.1875 -4.847656 8.9375 -5.265625 C 8.695312 -5.691406 8.335938 -5.921875 7.859375 -5.953125 C 7.628906 -5.972656 7.414062 -5.984375 7.21875 -5.984375 C 7.019531 -5.984375 6.804688 -5.984375 6.578125 -5.984375 L 5.640625 -5.984375 L 4.59375 0 L 0.484375 0 L 3.265625 -15.75 L 9.515625 -15.75 C 10.003906 -15.75 10.429688 -15.738281 10.796875 -15.71875 C 11.160156 -15.707031 11.550781 -15.679688 11.96875 -15.640625 C 12.632812 -15.554688 13.238281 -15.382812 13.78125 -15.125 C 14.332031 -14.875 14.769531 -14.507812 15.09375 -14.03125 C 15.425781 -13.550781 15.59375 -12.9375 15.59375 -12.1875 Z M 6.15625 -8.953125 L 7.671875 -8.953125 C 7.878906 -8.953125 8.070312 -8.953125 8.25 -8.953125 C 8.4375 -8.953125 8.609375 -8.957031 8.765625 -8.96875 C 9.171875 -9 9.550781 -9.082031 9.90625 -9.21875 C 10.269531 -9.351562 10.5625 -9.566406 10.78125 -9.859375 C 11.007812 -10.160156 11.125 -10.582031 11.125 -11.125 C 11.125 -11.632812 10.96875 -11.988281 10.65625 -12.1875 C 10.34375 -12.382812 9.957031 -12.5 9.5 -12.53125 C 9.34375 -12.550781 9.171875 -12.5625 8.984375 -12.5625 C 8.804688 -12.5625 8.613281 -12.5625 8.40625 -12.5625 L 6.796875 -12.5625 Z M 6.15625 -8.953125 "/></g></g></g><g fill="#dbdbdb" fill-opacity="1"><g transform="translate(67.468263, 22.867688)"><g><path d="M 18.328125 -15.75 L 15.546875 0 L 10.1875 0 L 6.421875 -10.4375 L 4.59375 0 L 0.484375 0 L 3.265625 -15.75 L 8.375 -15.75 L 12.328125 -4.859375 L 14.21875 -15.75 Z M 18.328125 -15.75 "/></g></g></g><g fill="#dbdbdb" fill-opacity="1"><g transform="translate(84.68134, 22.867688)"><g><path d="M 6.796875 -12.5625 L 6.28125 -9.5 L 13.5625 -9.5 L 12.984375 -6.296875 L 5.703125 -6.296875 L 5.15625 -3.203125 L 13.125 -3.203125 L 12.5625 0 L 0.484375 0 L 3.265625 -15.75 L 15.109375 -15.75 L 14.546875 -12.5625 Z M 6.796875 -12.5625 "/></g></g></g><g fill="#dbdbdb" fill-opacity="1"><g transform="translate(98.292069, 22.867688)"><g><path d="M 15.78125 -12.5625 L 10.6875 -12.5625 L 8.46875 0 L 4.359375 0 L 6.578125 -12.5625 L 1.4375 -12.5625 L 2.03125 -15.75 L 16.375 -15.75 Z M 15.78125 -12.5625 "/></g></g></g><g fill="#dbdbdb" fill-opacity="1"><g transform="translate(111.993987, 22.867688)"><g/></g></g><g fill="#dbdbdb" fill-opacity="1"><g transform="translate(114.204855, 22.867688)"><g><path d="M 4.59375 0 L 0.484375 0 L 3.265625 -15.75 L 7.375 -15.75 Z M 4.59375 0 "/></g></g></g><g fill="#dbdbdb" fill-opacity="1"><g transform="translate(120.474061, 22.867688)"><g><path d="M 13.171875 -3.46875 L 12.5625 0 L 0.484375 0 L 3.265625 -15.75 L 7.375 -15.75 L 5.203125 -3.46875 Z M 13.171875 -3.46875 "/></g></g></g><g fill="#dbdbdb" fill-opacity="1"><g transform="translate(133.811178, 22.867688)"><g><path d="M 4.59375 0 L 0.484375 0 L 3.265625 -15.75 L 7.375 -15.75 Z M 4.59375 0 "/></g></g></g><g fill="#dbdbdb" fill-opacity="1"><g transform="translate(140.080383, 22.867688)"><g><path d="M 21.28125 -15.75 L 18.484375 0 L 14.375 0 L 16.453125 -11.546875 L 11.875 0 L 7.09375 0 L 6.59375 -11.546875 L 4.59375 0 L 0.484375 0 L 3.265625 -15.75 L 9.953125 -15.75 L 10.3125 -4.421875 L 14.421875 -15.75 Z M 21.28125 -15.75 "/></g></g></g><g fill="#dbdbdb" fill-opacity="1"><g transform="translate(160.234632, 22.867688)"><g><path d="M 4.59375 0 L 0.484375 0 L 3.265625 -15.75 L 7.375 -15.75 Z M 4.59375 0 "/></g></g></g><g fill="#dbdbdb" fill-opacity="1"><g transform="translate(166.503837, 22.867688)"><g><path d="M 15.78125 -12.5625 L 10.6875 -12.5625 L 8.46875 0 L 4.359375 0 L 6.578125 -12.5625 L 1.4375 -12.5625 L 2.03125 -15.75 L 16.375 -15.75 Z M 15.78125 -12.5625 "/></g></g></g><g fill="#dbdbdb" fill-opacity="1"><g transform="translate(180.205756, 22.867688)"><g><path d="M 10.34375 -4.09375 L 5.390625 -4.09375 L 3.375 0 L -0.984375 0 L 7.328125 -15.75 L 12.640625 -15.75 L 15.40625 0 L 10.9375 0 Z M 9.890625 -7.28125 L 9.21875 -11.9375 L 6.9375 -7.28125 Z M 9.890625 -7.28125 "/></g></g></g><g fill="#dbdbdb" fill-opacity="1"><g transform="translate(195.617659, 22.867688)"><g><path d="M 11.1875 -15.65625 C 12.238281 -15.539062 13.171875 -15.226562 13.984375 -14.71875 C 14.804688 -14.21875 15.457031 -13.5 15.9375 -12.5625 C 16.425781 -11.625 16.671875 -10.457031 16.671875 -9.0625 C 16.671875 -7.539062 16.367188 -6.128906 15.765625 -4.828125 C 15.160156 -3.523438 14.25 -2.453125 13.03125 -1.609375 C 11.8125 -0.765625 10.285156 -0.25 8.453125 -0.0625 C 8.035156 -0.03125 7.695312 -0.0078125 7.4375 0 C 7.175781 0 6.835938 0 6.421875 0 L 0.484375 0 L 3.265625 -15.75 L 9 -15.75 C 9.40625 -15.75 9.773438 -15.742188 10.109375 -15.734375 C 10.441406 -15.734375 10.800781 -15.707031 11.1875 -15.65625 Z M 8.03125 -3.234375 C 9.019531 -3.328125 9.828125 -3.644531 10.453125 -4.1875 C 11.085938 -4.726562 11.554688 -5.410156 11.859375 -6.234375 C 12.171875 -7.066406 12.328125 -7.972656 12.328125 -8.953125 C 12.328125 -10.140625 12.09375 -11.007812 11.625 -11.5625 C 11.164062 -12.113281 10.507812 -12.429688 9.65625 -12.515625 C 9.394531 -12.546875 9.15625 -12.5625 8.9375 -12.5625 C 8.726562 -12.5625 8.472656 -12.5625 8.171875 -12.5625 L 6.796875 -12.5625 L 5.15625 -3.203125 L 6.546875 -3.203125 C 6.859375 -3.203125 7.117188 -3.203125 7.328125 -3.203125 C 7.535156 -3.210938 7.769531 -3.222656 8.03125 -3.234375 Z M 8.03125 -3.234375 "/></g></g></g><g fill="#dbdbdb" fill-opacity="1"><g transform="translate(211.827544, 22.867688)"><g><path d="M 10.65625 -16.078125 C 12.269531 -16.078125 13.632812 -15.78125 14.75 -15.1875 C 15.875 -14.59375 16.726562 -13.78125 17.3125 -12.75 C 17.894531 -11.71875 18.1875 -10.550781 18.1875 -9.25 C 18.1875 -7.769531 17.953125 -6.4375 17.484375 -5.25 C 17.015625 -4.0625 16.359375 -3.054688 15.515625 -2.234375 C 14.679688 -1.410156 13.707031 -0.78125 12.59375 -0.34375 C 11.488281 0.09375 10.296875 0.3125 9.015625 0.3125 C 7.421875 0.3125 6.054688 0.015625 4.921875 -0.578125 C 3.796875 -1.171875 2.941406 -1.984375 2.359375 -3.015625 C 1.773438 -4.046875 1.484375 -5.207031 1.484375 -6.5 C 1.484375 -8 1.71875 -9.335938 2.1875 -10.515625 C 2.664062 -11.691406 3.320312 -12.691406 4.15625 -13.515625 C 4.988281 -14.335938 5.960938 -14.96875 7.078125 -15.40625 C 8.191406 -15.851562 9.382812 -16.078125 10.65625 -16.078125 Z M 9.15625 -2.6875 C 9.945312 -2.6875 10.640625 -2.878906 11.234375 -3.265625 C 11.828125 -3.660156 12.316406 -4.171875 12.703125 -4.796875 C 13.085938 -5.429688 13.375 -6.128906 13.5625 -6.890625 C 13.757812 -7.648438 13.859375 -8.394531 13.859375 -9.125 C 13.859375 -10.28125 13.578125 -11.222656 13.015625 -11.953125 C 12.453125 -12.691406 11.625 -13.0625 10.53125 -13.0625 C 9.738281 -13.0625 9.046875 -12.863281 8.453125 -12.46875 C 7.859375 -12.082031 7.363281 -11.570312 6.96875 -10.9375 C 6.582031 -10.3125 6.296875 -9.617188 6.109375 -8.859375 C 5.921875 -8.097656 5.828125 -7.351562 5.828125 -6.625 C 5.828125 -5.46875 6.109375 -4.519531 6.671875 -3.78125 C 7.234375 -3.050781 8.0625 -2.6875 9.15625 -2.6875 Z M 9.15625 -2.6875 "/></g></g></g></g></g><g clip-path="url(#2e9cd20824)"><g transform="matrix(1, 0, 0, 1, 52, 128)"><g clip-path="url(#ed74f6aa9f)"><g clip-path="url(#3c535c6fce)"><path fill="#dbdbdb" d="M 0.878906 0.839844 L 405.109375 0.839844 L 405.109375 19.042969 L 0.878906 19.042969 Z M 0.878906 0.839844 " fill-opacity="1" fill-rule="nonzero"/></g></g></g></g></svg>